<svg id="Warstwa_1" data-name="Warstwa 1" xmlns="http://www.w3.org/2000/svg" viewBox="0 0 1200 1200"><defs><style>.cls-1,.cls-2{fill:#622599;}.cls-2{fill-rule:evenodd;}</style></defs><path class="cls-1" d="M646.83,605h-.14"/><path class="cls-1" d="M649.1,936.28s-21.83-17-15-24.42"/><path class="cls-1" d="M572.47,984.81C552,977,524.18,974.7,508.7,980.69l3.91,6.91L523,1001.92l11.89-1.19c.38,0,9.35.32,16,3.63,0,0,19.51-20.37,21.64-19.55"/><path class="cls-1" d="M638.06,120.13s-4.09,2.5-5.59,4.63c-1.26,1.78-2.72,5.76-3.53,8.28-.73,2.31-.78,5.36-2.84,8.14a26.8,26.8,0,0,1-6,5.25,397.18,397.18,0,0,1,40.57,4l-.36-.19a26.85,26.85,0,0,0,6.47-4.66c2.32-2.58,2.65-5.61,3.6-7.84,1.05-2.44,2.88-6.26,4.3-7.91,1.69-2,6-4.08,6-4.08l0,0a419.6,419.6,0,0,0-42.45-5.91l-.23.23"/><path class="cls-1" d="M692.78,128.57s-4.38,2-6.14,3.87c-1.48,1.61-3.44,5.35-4.58,7.76-1,2.19-1.48,5.21-3.89,7.69a26.63,26.63,0,0,1-6.62,4.43,398.25,398.25,0,0,1,39.69,9.3l-.32-.23a26.88,26.88,0,0,0,7-3.79c2.63-2.25,3.35-5.21,4.59-7.29,1.36-2.3,3.66-5.83,5.29-7.29,1.95-1.74,6.5-3.26,6.5-3.26l0,0A414.53,414.53,0,0,0,693,128.39l-.26.18"/><path class="cls-1" d="M745.94,144.1s-4.6,1.37-6.61,3c-1.68,1.4-4.1,4.85-5.55,7.08-1.3,2-2.14,5-4.85,7.13a26.71,26.71,0,0,1-7.15,3.53,394.91,394.91,0,0,1,38.14,14.4l-.29-.29a26.72,26.72,0,0,0,7.45-2.82c2.9-1.89,4-4.73,5.51-6.64,1.65-2.09,4.4-5.29,6.2-6.52,2.15-1.48,6.86-2.39,6.86-2.39l0,0A421.08,421.08,0,0,0,746.23,144l-.29.15"/><path class="cls-1" d="M796.61,166.43s-4.74.76-6.94,2.13c-1.84,1.18-4.7,4.28-6.43,6.31-1.57,1.85-2.78,4.65-5.73,6.44a27.43,27.43,0,0,1-7.55,2.57h0a388.28,388.28,0,0,1,35.94,19.25l-.25-.32a26.62,26.62,0,0,0,7.75-1.84c3.14-1.49,4.6-4.16,6.33-5.86,1.91-1.85,5-4.68,7-5.66,2.32-1.17,7.11-1.47,7.11-1.47l0,0a418.16,418.16,0,0,0-37-21.7l-.31.12"/><path class="cls-1" d="M843.94,195.18s-4.8.13-7.16,1.22c-2,.91-5.23,3.62-7.2,5.41-1.79,1.63-3.36,4.24-6.54,5.62a26.3,26.3,0,0,1-7.8,1.55,400,400,0,0,1,33.11,23.79l-.2-.34a26.75,26.75,0,0,0,7.92-.82c3.29-1.06,5.09-3.52,7-5,2.15-1.59,5.61-4,7.67-4.7,2.47-.86,7.25-.54,7.25-.54l0,0a422.56,422.56,0,0,0-33.81-26.34l-.31.08"/><path class="cls-1" d="M887.1,229.87s-4.77-.51-7.25.27c-2.09.65-5.66,2.9-7.85,4.43-2,1.37-3.88,3.77-7.21,4.71a26.61,26.61,0,0,1-7.95.54,393.54,393.54,0,0,1,29.74,27.89l-.16-.37a26.79,26.79,0,0,0,8,.23c3.4-.63,5.52-2.83,7.62-4,2.34-1.31,6.1-3.21,8.24-3.67,2.54-.53,7.25.42,7.25.42l0,0a422.13,422.13,0,0,0-30.08-30.52l-.33,0"/><path class="cls-1" d="M925.37,269.89s-4.67-1.12-7.23-.68c-2.16.37-6,2.14-8.35,3.36-2.15,1.12-4.33,3.23-7.76,3.74a26.46,26.46,0,0,1-8-.52h0a390.54,390.54,0,0,1,25.84,31.55l-.11-.39a26.42,26.42,0,0,0,7.86,1.27c3.47-.18,5.85-2.09,8.09-3,2.48-1,6.47-2.39,8.64-2.56,2.6-.19,7.14,1.37,7.14,1.37v0a420.83,420.83,0,0,0-25.83-34.19h-.33"/><path class="cls-1" d="M958.1,314.56s-4.49-1.72-7.07-1.62c-2.19.09-6.23,1.35-8.74,2.24-2.28.83-4.72,2.65-8.18,2.71a26.58,26.58,0,0,1-7.82-1.56A391.35,391.35,0,0,1,947.78,351l-.06-.41a26.94,26.94,0,0,0,7.64,2.3c3.44.27,6-1.31,8.41-1.91,2.58-.66,6.71-1.53,8.89-1.41,2.6.14,6.91,2.27,6.91,2.27v.05a425.11,425.11,0,0,0-21.16-37.26l-.32-.05"/><path class="cls-1" d="M984.71,363.12s-4.22-2.28-6.81-2.53c-2.18-.19-6.34.53-8.95,1.1-2.36.51-5,2-8.47,1.59a26.43,26.43,0,0,1-7.54-2.55,395,395,0,0,1,16.79,37.16v-.42a26.14,26.14,0,0,0,7.26,3.27c3.4.73,6.19-.51,8.59-.79,2.66-.31,6.86-.64,9-.24,2.55.49,6.54,3.16,6.54,3.16v.06q-7-20.12-16.1-39.72l-.32-.09"/><path class="cls-1" d="M1004.75,414.74s-3.89-2.82-6.42-3.38c-2.14-.49-6.36-.32-9-.1-2.42.2-5.25,1.33-8.61.48a26.92,26.92,0,0,1-7.15-3.52,389.2,389.2,0,0,1,11.81,39l0-.41a26.53,26.53,0,0,0,6.79,4.18c3.27,1.17,6.19.32,8.62.33,2.66.05,6.88.27,9,.95,2.47.82,6.07,4,6.07,4v0a420.11,420.11,0,0,0-10.78-41.48l-.3-.13"/><path class="cls-1" d="M1017.88,468.54s-3.49-3.3-5.92-4.2c-2-.75-6.26-1.13-8.91-1.27-2.43-.11-5.38.63-8.6-.65a26.61,26.61,0,0,1-6.63-4.41,391.25,391.25,0,0,1,6.6,40.24l.1-.4a26.69,26.69,0,0,0,6.18,5c3.09,1.57,6.09,1.11,8.49,1.45,2.63.38,6.79,1.17,8.76,2.11,2.34,1.13,5.5,4.75,5.5,4.75v.05a422.78,422.78,0,0,0-5.27-42.53l-.29-.17"/><path class="cls-1" d="M1023.88,523.59s-3-3.72-5.32-4.93c-1.94-1-6.06-1.95-8.68-2.42-2.39-.44-5.41-.07-8.44-1.77a26.75,26.75,0,0,1-6-5.25h0a395,395,0,0,1,1.3,40.76l.14-.37a26.94,26.94,0,0,0,5.47,5.78c2.85,2,5.9,1.9,8.23,2.56,2.57.72,6.58,2,8.42,3.23,2.17,1.42,4.82,5.42,4.82,5.42v0a424.93,424.93,0,0,0,.3-42.85l-.25-.21"/><path class="cls-1" d="M1022.65,579s-2.52-4.08-4.64-5.59c-1.78-1.26-5.75-2.72-8.28-3.53-2.31-.73-5.36-.78-8.14-2.84a26.72,26.72,0,0,1-5.26-6,394.28,394.28,0,0,1-4,40.58l.19-.36a26.58,26.58,0,0,0,4.67,6.46c2.57,2.31,5.6,2.64,7.83,3.6,2.45,1.06,6.25,2.88,7.91,4.3,2,1.69,4.08,6,4.08,6v.06a420,420,0,0,0,5.9-42.45l-.22-.24"/><path class="cls-1" d="M1014.19,633.68s-2-4.38-3.86-6.15c-1.61-1.48-5.34-3.45-7.75-4.58-2.2-1-5.22-1.47-7.71-3.88a27,27,0,0,1-4.42-6.62h0a395.65,395.65,0,0,1-9.29,39.7l.23-.33a26.73,26.73,0,0,0,3.79,7c2.26,2.63,5.21,3.36,7.29,4.6,2.3,1.36,5.83,3.66,7.29,5.29,1.73,1.94,3.26,6.49,3.26,6.49l0,0a418.2,418.2,0,0,0,11.39-41.32l-.19-.26"/><path class="cls-1" d="M999.72,687.32s-1-4.68-2.54-6.8c-1.28-1.78-4.54-4.45-6.68-6-1.93-1.46-4.8-2.5-6.75-5.36a26.82,26.82,0,0,1-3-7.39,394.17,394.17,0,0,1-17.11,37l.3-.27a26.67,26.67,0,0,0,2.3,7.63c1.66,3,4.41,4.33,6.21,6,2,1.8,5,4.77,6.06,6.66,1.31,2.24,1.9,7,1.9,7l0,0a419.79,419.79,0,0,0,19.49-38.17l-.14-.3"/><path class="cls-1" d="M976.35,737.51s-.76-4.74-2.15-6.93c-1.16-1.86-4.27-4.71-6.3-6.44-1.86-1.57-4.66-2.77-6.43-5.74a26.42,26.42,0,0,1-2.57-7.56,393.3,393.3,0,0,1-19.25,36l.31-.26a27.11,27.11,0,0,0,1.84,7.76c1.48,3.12,4.16,4.58,5.85,6.32,1.86,1.91,4.68,5,5.68,7,1.16,2.32,1.46,7.11,1.46,7.11l0,0a418.07,418.07,0,0,0,21.69-36.95l-.1-.31"/><path class="cls-1" d="M947.58,784.84s-.12-4.8-1.21-7.15c-.92-2-3.62-5.23-5.41-7.21-1.64-1.8-4.24-3.36-5.62-6.53a26.12,26.12,0,0,1-1.57-7.82A395.46,395.46,0,0,1,910,789.26l.35-.22a26.12,26.12,0,0,0,.79,7.93c1.08,3.29,3.54,5.1,5,7,1.59,2.13,4,5.62,4.71,7.69.86,2.44.52,7.24.52,7.24l0,0a418,418,0,0,0,26.35-33.8l-.09-.32"/><path class="cls-1" d="M912.9,828s.5-4.77-.26-7.25c-.66-2.09-2.92-5.66-4.43-7.85-1.38-2-3.78-3.88-4.73-7.21a26.74,26.74,0,0,1-.53-8,393.51,393.51,0,0,1-27.89,29.73l.37-.17a26.62,26.62,0,0,0-.23,8c.63,3.4,2.82,5.51,4,7.62,1.29,2.33,3.2,6.09,3.65,8.23.54,2.54-.41,7.25-.41,7.25l-.05,0a420.24,420.24,0,0,0,30.53-30.08l0-.33"/><path class="cls-1" d="M872.88,866.29s1.12-4.67.68-7.23c-.37-2.16-2.15-6-3.36-8.35-1.11-2.16-3.24-4.35-3.75-7.78A26.78,26.78,0,0,1,867,835a390.92,390.92,0,0,1-31.55,25.84l.39-.11a27,27,0,0,0-1.26,7.86c.17,3.46,2.09,5.84,3,8.09,1,2.48,2.4,6.46,2.56,8.64.19,2.59-1.36,7.13-1.36,7.13l-.05,0a421.11,421.11,0,0,0,34.2-25.84v-.32"/><path class="cls-1" d="M828.2,899s1.72-4.49,1.62-7.07c-.08-2.19-1.35-6.22-2.25-8.73-.81-2.29-2.64-4.73-2.69-8.19a26.39,26.39,0,0,1,1.55-7.82,392.2,392.2,0,0,1-34.64,21.5l.4-.06a26.11,26.11,0,0,0-2.28,7.64c-.28,3.45,1.3,6.06,1.89,8.41.67,2.58,1.54,6.72,1.42,8.89-.16,2.59-2.28,6.9-2.28,6.9h-.06a415.88,415.88,0,0,0,37.27-21.15l.05-.32"/><path class="cls-1" d="M779.65,925.63s2.28-4.23,2.51-6.81c.2-2.18-.52-6.34-1.09-8.94-.5-2.37-2-5-1.6-8.48a26.82,26.82,0,0,1,2.57-7.54,394.93,394.93,0,0,1-37.17,16.79h.41a38.75,38.75,0,0,0-3.67,7.14,22.26,22.26,0,0,0-.36,8.74c.32,2.64-.63,6.91-1,9.07a42.12,42.12,0,0,1-2.8,7.34c13.43-4.67,29.09-10.9,42.14-17l.1-.31"/><path class="cls-1" d="M724.85,945.36a49.38,49.38,0,0,0,1.75-5.23,27.32,27.32,0,0,0,1-7.68c-.15-2.42-2-4.33-1-7.68,0,0,2.5-7.43,4.88-10.47-13,4.31-31.79,11.74-43.79,18.15-2.81,1.34-5.55,2.77-5.55,2.77a25.36,25.36,0,0,0-1.82,8.26c-.09,2.56-.55,6.53-.52,9.24.06,5.76-5.33,13.69-5.33,13.69,14-2.53,31.71-10.58,43.5-17.45l6.88-3.6"/><path class="cls-1" d="M455.9,939.59s4.61-1.36,6.61-3c1.68-1.39,4.11-4.85,5.54-7.09,1.32-2,2.15-5,4.86-7.13a26.5,26.5,0,0,1,7.15-3.52,397.33,397.33,0,0,1-38.16-14.41l.3.29a26.39,26.39,0,0,0-7.45,2.83c-2.91,1.88-4,4.73-5.5,6.63-1.65,2.1-4.4,5.3-6.21,6.54-2.14,1.46-6.86,2.38-6.86,2.38l0,0a414,414,0,0,0,39.48,16.69l.28-.16"/><path class="cls-1" d="M405.22,917.27s4.74-.75,6.94-2.14c1.84-1.17,4.72-4.28,6.44-6.31,1.57-1.85,2.77-4.66,5.74-6.43a26.58,26.58,0,0,1,7.54-2.56,395.68,395.68,0,0,1-35.94-19.26l.25.32a26.26,26.26,0,0,0-7.75,1.84c-3.13,1.48-4.59,4.15-6.33,5.85-1.9,1.86-5.05,4.68-7,5.67-2.31,1.17-7.11,1.47-7.11,1.47l0,0a424.62,424.62,0,0,0,37,21.7l.31-.12"/><path class="cls-1" d="M357.89,888.52s4.8-.14,7.16-1.22c2-.92,5.23-3.62,7.2-5.42,1.79-1.62,3.35-4.24,6.54-5.62a26.52,26.52,0,0,1,7.81-1.56,390.53,390.53,0,0,1-33.12-23.78l.21.35a26.58,26.58,0,0,0-7.93.81c-3.3,1.06-5.09,3.52-7,5-2.14,1.59-5.61,4-7.68,4.7-2.46.86-7.24.53-7.24.53l0,0a419.78,419.78,0,0,0,33.81,26.34l.32-.07"/><path class="cls-1" d="M314.72,853.83s4.78.5,7.25-.27c2.09-.65,5.66-2.92,7.85-4.43,2-1.39,3.88-3.77,7.22-4.72a26.32,26.32,0,0,1,7.94-.53A395.7,395.7,0,0,1,315.24,816l.17.36a27.06,27.06,0,0,0-8-.22c-3.41.62-5.52,2.83-7.63,4-2.32,1.3-6.09,3.21-8.24,3.66-2.53.53-7.24-.42-7.24-.42l0,0a416.19,416.19,0,0,0,30.09,30.52l.32,0"/><path class="cls-1" d="M276.5,813.71s4.67,1.11,7.22.67c2.16-.37,6-2.14,8.36-3.36,2.16-1.1,4.35-3.23,7.77-3.74a26.78,26.78,0,0,1,7.95.52A394,394,0,0,1,282,776.27l.11.38a26.81,26.81,0,0,0-7.87-1.27c-3.46.18-5.83,2.08-8.08,3-2.48,1-6.46,2.38-8.63,2.55-2.59.19-7.14-1.37-7.14-1.37l0,0a421.39,421.39,0,0,0,25.83,34.19h.33"/><path class="cls-1" d="M243.78,769s4.49,1.71,7.08,1.61c2.19-.08,6.21-1.34,8.73-2.24,2.27-.82,4.72-2.64,8.18-2.7a26.67,26.67,0,0,1,7.81,1.55,395.36,395.36,0,0,1-21.49-34.64l.07.41a26.83,26.83,0,0,0-7.63-2.3c-3.46-.27-6.07,1.32-8.42,1.91-2.58.65-6.71,1.53-8.89,1.41-2.59-.15-6.9-2.28-6.9-2.28v0A419.6,419.6,0,0,0,243.46,769l.32.06"/><path class="cls-1" d="M217.18,720.48s4.22,2.28,6.81,2.52c2.17.2,6.34-.52,8.94-1.09,2.37-.51,5-2,8.47-1.59a26.53,26.53,0,0,1,7.54,2.55,388.57,388.57,0,0,1-16.78-37.15v.41a27,27,0,0,0-7.27-3.27c-3.39-.71-6.17.52-8.58.79-2.64.33-6.85.65-9,.24-2.56-.48-6.54-3.16-6.54-3.16v-.05a418.17,418.17,0,0,0,16.09,39.71l.32.09"/><path class="cls-1" d="M197.14,668.87s3.89,2.81,6.41,3.38c2.14.49,6.35.32,9,.09,2.42-.19,5.24-1.32,8.6-.48a26.6,26.6,0,0,1,7.16,3.53,395.86,395.86,0,0,1-11.8-39l0,.4a26.56,26.56,0,0,0-6.78-4.18c-3.27-1.16-6.19-.3-8.62-.34-2.66,0-6.88-.25-9-.94-2.45-.82-6.05-4-6.05-4v0a415.49,415.49,0,0,0,10.77,41.46l.3.15"/><path class="cls-1" d="M184,615.07s3.48,3.3,5.92,4.21c2,.75,6.26,1.12,8.92,1.26,2.42.12,5.38-.64,8.59.64a26.86,26.86,0,0,1,6.63,4.43,397,397,0,0,1-6.6-40.23l-.1.39a27.06,27.06,0,0,0-6.17-5c-3.09-1.58-6.1-1.11-8.49-1.46-2.65-.39-6.79-1.16-8.77-2.11-2.33-1.11-5.49-4.74-5.49-4.74v0a420.3,420.3,0,0,0,5.28,42.53l.28.16"/><path class="cls-1" d="M178,560s3,3.73,5.32,4.94c1.94,1,6.07,1.94,8.68,2.42,2.39.44,5.41.07,8.44,1.76a26.45,26.45,0,0,1,6,5.24,394.64,394.64,0,0,1-1.29-40.74L205,534a26.32,26.32,0,0,0-5.47-5.79c-2.85-2-5.9-1.91-8.23-2.56-2.57-.73-6.58-2-8.41-3.23-2.17-1.42-4.83-5.42-4.83-5.42l0,0a419.08,419.08,0,0,0-.32,42.85l.25.2"/><path class="cls-1" d="M179.25,504.67s2.52,4.11,4.63,5.59c1.79,1.27,5.75,2.73,8.29,3.53,2.31.74,5.36.79,8.14,2.86a26.62,26.62,0,0,1,5.25,6,397.18,397.18,0,0,1,4-40.57l-.2.35a26.46,26.46,0,0,0-4.66-6.45c-2.57-2.32-5.6-2.65-7.82-3.61-2.46-1.05-6.26-2.87-7.92-4.3-2-1.69-4.08-6-4.08-6V462a419.19,419.19,0,0,0-5.9,42.45l.22.22"/><path class="cls-1" d="M187.71,450s2,4.38,3.86,6.14c1.6,1.49,5.35,3.44,7.75,4.58,2.19,1,5.21,1.48,7.7,3.89a26.94,26.94,0,0,1,4.43,6.62,395.65,395.65,0,0,1,9.29-39.7l-.24.34a26.36,26.36,0,0,0-3.78-7c-2.24-2.63-5.2-3.36-7.29-4.6-2.28-1.36-5.82-3.67-7.28-5.3-1.73-1.93-3.26-6.48-3.26-6.48l0-.05a419.57,419.57,0,0,0-11.4,41.31l.2.27"/><path class="cls-1" d="M203.23,396.8s1.36,4.61,3,6.61c1.4,1.67,4.85,4.11,7.1,5.55,2,1.31,5,2.14,7.12,4.85A26.69,26.69,0,0,1,224,421a396.15,396.15,0,0,1,14.41-38.15l-.29.3a26.73,26.73,0,0,0-2.83-7.45c-1.88-2.91-4.72-4-6.63-5.51-2.09-1.64-5.29-4.39-6.53-6.2-1.46-2.14-2.39-6.86-2.39-6.86l0,0a420.14,420.14,0,0,0-16.69,39.47l.16.28"/><path class="cls-1" d="M225.56,346.14s.75,4.74,2.14,6.94c1.16,1.84,4.27,4.7,6.31,6.42,1.84,1.57,4.65,2.78,6.42,5.74A26.91,26.91,0,0,1,243,372.8a389.39,389.39,0,0,1,19.25-35.94l-.31.25a27.1,27.1,0,0,0-1.84-7.75c-1.5-3.13-4.16-4.6-5.86-6.33-1.86-1.9-4.68-5-5.67-7-1.16-2.32-1.47-7.11-1.47-7.11l0,0a419.44,419.44,0,0,0-21.7,36.94l.12.32"/><path class="cls-1" d="M254.31,298.82s.13,4.8,1.22,7.15c.91,2,3.62,5.23,5.41,7.2,1.63,1.8,4.24,3.36,5.62,6.53a26.73,26.73,0,0,1,1.56,7.82,393.59,393.59,0,0,1,23.78-33.11l-.35.2a26.48,26.48,0,0,0-.81-7.92c-1.06-3.3-3.53-5.1-5-7-1.59-2.13-4-5.62-4.7-7.68-.85-2.46-.53-7.24-.53-7.24l0,0a419.46,419.46,0,0,0-26.34,33.79l.08.33"/><path class="cls-1" d="M289,255.65s-.5,4.78.28,7.25c.64,2.09,2.9,5.65,4.42,7.85,1.38,2,3.77,3.88,4.71,7.22a26.69,26.69,0,0,1,.53,7.95h0a393.66,393.66,0,0,1,27.89-29.74l-.36.17a27.13,27.13,0,0,0,.22-8c-.63-3.41-2.83-5.51-4-7.63-1.31-2.32-3.22-6.08-3.67-8.21-.52-2.56.43-7.26.43-7.26l0,0A424.17,424.17,0,0,0,289,255.32l0,.33"/><path class="cls-1" d="M329,217.38s-1.11,4.68-.68,7.23c.37,2.15,2.15,6,3.36,8.36,1.11,2.16,3.24,4.34,3.75,7.76a26.84,26.84,0,0,1-.52,8,392.53,392.53,0,0,1,31.54-25.84l-.4.11a26.57,26.57,0,0,0,1.28-7.86c-.17-3.46-2.09-5.84-3-8.09-1-2.48-2.39-6.45-2.55-8.64-.2-2.59,1.35-7.12,1.35-7.12l.06,0A418.06,418.06,0,0,0,329,217.06v.32"/><path class="cls-1" d="M373.68,184.66s-1.71,4.49-1.61,7.08c.08,2.19,1.34,6.22,2.24,8.73.82,2.28,2.64,4.72,2.69,8.18a26.39,26.39,0,0,1-1.55,7.82A393.25,393.25,0,0,1,410.1,195l-.4.07A26.64,26.64,0,0,0,412,187.4c.28-3.45-1.3-6.05-1.9-8.41-.65-2.58-1.52-6.71-1.4-8.89.15-2.6,2.28-6.89,2.28-6.89l.06,0a417.11,417.11,0,0,0-37.28,21.15l-.05.32"/><path class="cls-1" d="M422.24,158.06s-2.29,4.22-2.51,6.81c-.21,2.17.51,6.33,1.07,8.94.52,2.37,2,5,1.61,8.46a26.47,26.47,0,0,1-2.57,7.55A391,391,0,0,1,457,173h-.4a26.64,26.64,0,0,0,3.26-7.27c.72-3.39-.5-6.17-.79-8.58-.32-2.64-.64-6.86-.23-9,.47-2.56,3.15-6.54,3.15-6.54H462a420.74,420.74,0,0,0-39.7,16.1l-.1.32"/><path class="cls-1" d="M473.86,138s-2.81,3.89-3.39,6.41c-.49,2.14-.31,6.36-.08,9,.19,2.41,1.31,5.25.48,8.6a26.62,26.62,0,0,1-3.53,7.14,395.73,395.73,0,0,1,39-11.78l-.41,0a26.53,26.53,0,0,0,4.18-6.79c1.17-3.26.32-6.18.34-8.61,0-2.67.27-6.88.94-9,.82-2.46,4-6.06,4-6.06h.05A422,422,0,0,0,474,137.72l-.14.3"/><path class="cls-1" d="M527.65,124.89s-3.29,3.49-4.2,5.91c-.75,2.06-1.13,6.27-1.26,8.92-.12,2.42.63,5.38-.65,8.61a26.65,26.65,0,0,1-4.41,6.62,393.84,393.84,0,0,1,40.23-6.61l-.4-.09a26.93,26.93,0,0,0,5-6.17c1.57-3.09,1.11-6.11,1.45-8.51.38-2.63,1.16-6.78,2.1-8.75,1.12-2.34,4.75-5.5,4.75-5.5h.05a420,420,0,0,0-42.53,5.28l-.17.28"/><path class="cls-1" d="M582.7,118.89s-3.73,3-4.93,5.32c-1,1.92-1.95,6-2.42,8.68-.44,2.39-.07,5.41-1.77,8.44a26.63,26.63,0,0,1-5.25,6A389.28,389.28,0,0,1,609.07,146l-.36-.15a26.56,26.56,0,0,0,5.79-5.47c2-2.86,1.9-5.9,2.55-8.24.73-2.56,2-6.57,3.24-8.4,1.41-2.17,5.42-4.83,5.42-4.83h0a421.75,421.75,0,0,0-42.84-.32l-.21.26"/><path class="cls-1" d="M479.85,937.88s4.49,22.92,19.5,23.56c2.87-9.32,15.7-20.4,23.49-25.87l2.85-3.44c-2.42-18.9,6.15-29.21,6.15-29.21l-8.42,1.93A74.27,74.27,0,0,0,479.62,938l.23-.15"/><path class="cls-1" d="M507,1013.48a17.37,17.37,0,0,0,7.06-4.76h.17a43.47,43.47,0,0,1-16.85-35.25C478.33,971.21,474,949.64,474,949.64l.05,0a71.49,71.49,0,0,0,7.25,63.69l.2,0s14.73,3.24,25.5.15"/><path class="cls-1" d="M548.36,1017.23a43.89,43.89,0,0,1-23.37-2.38l-.19,0c-4.09,13-33.71,10.16-33.71,10.16,10.54,10.12,24.72,17.74,39.94,19.86l-.16-.23s16.82-3.52,17.28-27.6l.21.17"/><path class="cls-1" d="M557.28,1015.69l.51-.37,12.69,2.87c23.62,6,28.09,9.61,28.09,9.61s-27,25.4-50.64,19.28c0,0,17.7-12.93,9.86-31.76"/><path class="cls-1" d="M636.71,1009.71c-18-14.34-35.37-16.77-48.55-21.21L562,1006.85l31.28,10.42c9.42,2.45,11.86,7,23.73,14.67,0,0,27.66-15.9,19.73-22.23"/><path class="cls-1" d="M690.29,1036.13c-10.12,10.12-26.88,10.82-26.88,10.82-11.87.34-23-.7-36.66-9.07,0,0,23-15.37,22-23.22,5.24,1.4,21.29,4,25.48,1.22,0,0,5.59,13.78,16.06,20.25"/><path class="cls-1" d="M649.1,936.28c11.86-9.77,22.34-13.61,30.37-11.17,27.64-11.86,32.11-12.91,32.11-12.91-10.82-12.22-22-14.66-40.83-14-8.49.31-34.53,9.89-38.57,15.68"/><path class="cls-1" d="M640.37,942.22S622.22,926.86,625.71,916c-20.25,17.8-28.46,26.7-45.2,26.7-4.2.71-.53.19-.53.19a29.16,29.16,0,0,0-4.19,8.37A31.23,31.23,0,0,0,574,959c-.17,7.16.35,9.08.35,9.08,18.33,1,17.11,1.73,33.86-2.8a71.44,71.44,0,0,0,22.7-15c2-1.91,7.57-6.12,9.42-8"/><path class="cls-1" d="M565.84,969.1s-2.09-.06.18-10.82c.65-3.15,1.88-5.18,2.79-7.68a27.47,27.47,0,0,1,4.18-8h0l-5.07.28a279.85,279.85,0,0,1-33.95-5h0c-4.22,1.31-10.28,5.28-11.33,7.46-1.14,2.41-3.48,3.19-5,4.8-1.1,1.17-4.92,5.91-4.92,5.91l0,0c13.81,6.14,39.17,13.59,53.14,13.07"/><path class="cls-1" d="M549.25,905.35c2.17-3.45,6.65-2.25,9.83-2.61,16.43-1.86,39.63,9.14,44.3,19.71L596,928.09c-6.38,5.43-15.23,6.49-15.23,6.49l-4.17-1.48c-5.16-2.29-12.77-3-18.79-3.15-5.82-.1-12.34-1.61-17.46.37-6.16-6.4,8.87-24.86,8.87-24.86v-.11"/><path class="cls-1" d="M481.75,1026.7c-5.87,4.31-9.64,7.75-9.64,7.75l-6,5.74.27-.26s-19.12-22.37-34-9.39l-.12.09c6.36-7.91,11.94-15.15,15.09-18.3a49.66,49.66,0,0,1,13.11-9.94l-1.72,1.08A37.68,37.68,0,0,1,465,1001s3.93,18.71,16.77,25.66"/><path class="cls-1" d="M422.36,1042.93c19.52-16,35.51,5.21,35.51,5.21l-14.58,14-20.93-19.25"/><polygon class="cls-1" points="434.42 1070.89 437.11 1067.88 417.93 1049.32 415.22 1052.34 434.42 1070.89"/><path class="cls-1" d="M410.24,1056a108.29,108.29,0,0,0-11,8.17l21.51,25.21,9-13.45L410.24,1056"/><path class="cls-1" d="M766.54,1062.8a106.71,106.71,0,0,1,10.67,8.58l-22.47,24.36L746.28,1082l20.26-19.17"/><polygon class="cls-1" points="760.75 1059.61 757.94 1056.7 737.97 1074.41 740.78 1077.31 760.75 1059.61"/><path class="cls-1" d="M754.94,1049.31c-18.88-16.78-35.7,3.85-35.7,3.85l14,14.59,21.66-18.44"/><path class="cls-1" d="M718.43,1007.34c-25.58-13.76-39.27,5.95-39.27,5.95,15.89,7.7,28.15,25,28.15,25l4,6.62-.26-.27s20-21.62,34.37-8.07l.11.08c-6-8.15-11.4-15.25-14.43-18.51a93.23,93.23,0,0,0-12.66-10.79"/><path class="cls-1" d="M622.81,966.12c-2.16.89,13.58,6.54,38.68,2.87l.18-.27s3.41-3.39,4.37-5.8c.82-2,2.54-6.89,2.75-9.54.18-2.42,1-4,1-7.31a21.46,21.46,0,0,1,1.17-6.26c-2.81,1.46-17.76,6.47-17.76,6.47-4.11,1-6.91,1.53-6.91,1.53-2.3,1.7-4.07,3.87-5.93,5.41-1.24,1-4.12,3.56-7.32,6.11-1.65,1.32-9.3,6-10.24,6.79"/><path class="cls-1" d="M727.81,1001.39c15.54-17.63,8.92-38.57,6.12-48.69l-30.54,13.95c.51,1.4,5.06,10.12-3.51,19.91,0,0,29.64,12.89,27.93,14.83"/><path class="cls-1" d="M668.3,1009.07c0,.17,20.59-19.17,33.68-13.26l-3-2.63c-11.81-8.74-26.11-13.92-40.14-14.3-12.75-.35-35,3.32-40,11.61,0,0,19.08,3.75,31.11,16,1.1,1.11,6.11-.34,18.34,2.62"/><path class="cls-1" d="M353.62,534.27l12.25-24.48,27.07,4.09-19.5-19.21,12.26-24.49-24.3,12.6-19.5-19.22,4.48,27-24.3,12.6,27.07,4.09,4.47,27m185.92,72.35-.7.12c-14.05,1.37-32.13,2.9-48.72,6.55-8-31.1-30.55-71.09-69.36-65.47-33.25,4.82-47.2,38.94-39.17,69.28-47.39,6.58-87.3-31.85-96.83-75.6-14.25-65.39,33.39-131.29,102.42-131.19,96.91.13,149.15,127.9,152.36,196.31"/><path class="cls-1" d="M848.27,534.39l4.47-27,27.07-4.09-24.31-12.6,4.48-27-19.5,19.21-24.3-12.59,12.25,24.47L808.94,514,836,509.91l12.27,24.48M662.33,606.74c3.21-68.41,55.47-196.18,152.37-196.31,69-.09,116.66,65.8,102.41,131.19-9.53,43.75-49.42,82.18-96.82,75.6,8-30.34-5.93-64.46-39.17-69.28-38.82-5.62-61.36,34.38-69.25,65.14-16.7-3.32-34.79-4.85-48.83-6.21Z"/><path class="cls-1" d="M601.16,650.6c62.62,0,113-5.89,113-9.79s-50.76-10.1-113.37-10.1-113.38,6.19-113.38,10.1,51.11,9.79,113.72,9.79m-.34,14.14c-72.39,0-131.06-10.7-131.06-23.9s58.67-23.91,131.06-23.91,131,10.71,131,23.91-58.68,23.9-131,23.9"/><path class="cls-1" d="M707.42,669.15a428.76,428.76,0,0,1-45.74,6.62l.14-.2c3.21,28.8,27,90.76,67.75,90.76,29.86,0,53.13-26.21,55.5-54.81-35,16.65-70.7-.62-77.94-42.39l.29,0"/><path class="cls-1" d="M539.62,675.75a432.43,432.43,0,0,1-45.22-6.41l-.08-.31c-6.89,42.41-42.84,60-78.09,43.27,2.38,28.6,25.62,54.81,55.5,54.81,41.1,0,64.93-63,67.83-91.45l.06.09"/><path class="cls-2" d="M600.83,210.76c17.46,18.86,46.38,40.9,52.35,45.38,44.69,33.52,65.67,79.58,66,119.74.57,74.38-62.07,139.71-69.92,229.53a386.23,386.23,0,0,0-40.39-2.23c1.62-91.1-1.86-214.53-8-303.67-6.18,89.14-9.67,212.57-8.05,303.67a386.5,386.5,0,0,0-40.38,2.23c-7.85-89.82-70.5-155.15-69.93-229.53.32-40.16,21.3-86.22,66-119.74,6-4.48,34.93-26.52,52.38-45.38"/><path class="cls-2" d="M600.83,849.31C635.74,834,671.7,801.47,687.06,768c-22.18-30.7-33.46-64-36.95-91-12.85.93-26.43,1.5-40.56,1.5-1.76,24.21-1.69,75.61-8.72,103.39-7-27.78-7-79.18-8.72-103.39-14.13,0-27.71-.57-40.56-1.5-3.48,27-14.75,60.33-36.92,91,15.36,33.51,51.3,66,86.2,81.35"/></svg>